<svg xmlns="http://www.w3.org/2000/svg" width="119" height="48" viewBox="0 0 119 48" fill="none"><path d="M62.2436 17.0814C61.2705 16.2641 59.5969 15.8554 57.2228 15.8554H51.8906V32.3384H55.88V27.1619H57.6704C59.8305 27.1619 61.4262 26.6754 62.4382 25.7218C63.5863 24.6515 64.1507 23.2309 64.1507 21.4405C64.1507 19.6113 63.5085 18.1517 62.2436 17.0814ZM57.5536 23.4255H55.8605V19.5723H57.3785C59.2272 19.5723 60.1418 20.2145 60.1418 21.5184C60.1613 22.7833 59.2856 23.4255 57.5536 23.4255ZM70.9618 15.8359H66.8168V32.3189H75.788V28.5825H70.9618V15.8359ZM83.9419 15.8359L77.4032 32.3189H81.8791L82.7354 29.9253H88.4178L89.1962 32.3189H93.7305L87.2502 15.8359H83.9419ZM83.8835 26.5976L85.5961 20.954L87.2891 26.5976H83.8835Z" fill="#131212"></path><path d="M95.813 32.3193H99.9775V15.8364H95.813V32.3193ZM116.11 18.9306C115.585 18.1716 114.904 17.5294 114.125 17.0234C112.86 16.2256 111.148 15.8364 108.988 15.8364H103.5V32.3193H109.902C112.218 32.3193 114.086 31.5604 115.487 30.0425C116.889 28.5245 117.589 26.5201 117.589 24.0097C117.609 22.0248 117.103 20.3317 116.11 18.9306ZM109.455 28.5829H107.684V19.5728H109.494C110.759 19.5728 111.751 19.962 112.432 20.7598C113.113 21.5577 113.464 22.6864 113.464 24.146C113.444 27.1039 112.121 28.5829 109.455 28.5829ZM18.1076 2L4.62151 5.52234L0.904573 19.0862L5.57507 23.854L0.846191 28.544L4.34907 42.1663L17.7768 45.9222L22.5056 41.2322L27.1567 46L40.6427 42.4777L44.3597 28.9138L39.7086 24.146L44.4375 19.456L40.9346 5.8337L27.507 2.07784L22.7781 6.7678L18.1076 2ZM9.8369 8.13003L16.94 6.26183L20.0536 9.45334L15.5193 13.9487L9.8369 8.13003ZM25.4247 9.51172L28.5773 6.37859L35.6414 8.36356L29.8617 14.1044C29.8811 14.0849 25.4247 9.51172 25.4247 9.51172ZM5.1664 17.977L7.13191 10.835L12.8143 16.6537L8.28007 21.1491L5.1664 17.977ZM32.5472 16.8288L38.327 11.088L40.1757 18.2689L37.0231 21.402C37.0036 21.402 32.5472 16.8288 32.5472 16.8288ZM18.1854 16.7121L22.7197 12.2167L27.1761 16.7899L22.6419 21.2853L18.1854 16.7121ZM10.9461 23.893L15.4804 19.3976L19.9369 23.9708L15.4026 28.4662L10.9461 23.893ZM25.3079 24.0097L29.8422 19.5144L34.2986 24.0876L29.7644 28.5829C29.7644 28.6024 25.3079 24.0097 25.3079 24.0097ZM5.08856 29.7311L8.24115 26.598L12.6976 31.1712L6.9373 36.912C6.91784 36.912 5.08856 29.7311 5.08856 29.7311ZM18.0687 31.2101L22.6029 26.7147L27.0594 31.2879L22.5251 35.7833L18.0687 31.2101ZM32.4304 31.3268L36.9647 26.8315L40.0784 30.023L38.1323 37.165C38.1129 37.165 32.4304 31.3268 32.4304 31.3268ZM9.58392 39.6364L15.3442 33.8956L19.8006 38.4688L16.648 41.6019L9.58392 39.6364ZM25.1912 38.5272L29.7254 34.0318L35.4079 39.8505L28.3048 41.7187L25.1912 38.5272Z" fill="#131212"></path></svg>