<svg xmlns="http://www.w3.org/2000/svg" width="181" height="48" viewBox="0 0 181 48" fill="none"><g clip-path="url(#clip0_71_63)"><path fill-rule="evenodd" clip-rule="evenodd" d="M26.7179 14.3648C27.4321 14.5354 28.0585 14.9629 28.4776 15.5659C28.912 16.3264 29.1189 17.1957 29.0735 18.0703C29.0729 19.2199 28.8971 20.3627 28.5521 21.4593C28.1465 22.7392 27.639 23.9846 27.0345 25.1834L26.3269 26.7383L22.8448 18.2845C22.6746 17.8818 22.5315 17.4681 22.4166 17.0462C22.3254 16.7242 22.2692 16.3933 22.249 16.0593C22.2313 15.637 22.3824 15.225 22.6688 14.9141C22.9552 14.6032 23.3535 14.419 23.7759 14.4021V14.1507H13.2738V14.4021C13.6311 14.4674 13.9765 14.5867 14.2979 14.7559C14.6259 14.9765 14.9023 15.2655 15.1079 15.6031C15.4707 16.1734 15.7822 16.7748 16.039 17.4L17.6776 21.3103L14.7169 27.1666L10.3038 16.9252C10.1902 16.7205 10.0967 16.5054 10.0245 16.2828C9.98684 16.1208 9.96502 15.9555 9.95931 15.7893C9.95693 15.4776 10.0696 15.1759 10.2759 14.9421C10.5304 14.6674 10.8508 14.4622 11.2069 14.3462V14.1134H0.5V14.3648C1.37074 14.6307 2.15911 15.1146 2.79034 15.7707C3.61876 16.7236 4.29691 17.7973 4.80138 18.9548L11.5793 34.019H11.8586L17.9662 21.9155L23.1893 34.019H23.4686L29.6786 20.6121C30.3366 19.0852 31.1675 17.6388 32.1552 16.3014C32.8003 15.4631 33.6324 14.7872 34.5852 14.3276V14.0855H26.7179V14.3648Z" fill="#131212"></path><path d="M43.7931 27.6693C43.1228 29.3917 41.6424 30.239 39.3055 30.239C38.0374 30.3059 36.8032 29.8163 35.9259 28.8983C35.0301 27.8165 34.5747 26.437 34.6503 25.0345H43.9607V24.8576C43.9758 23.7415 43.6511 22.6472 43.0297 21.72C42.3935 20.8242 41.533 20.1114 40.5345 19.6531C39.439 19.1538 38.2469 18.9027 37.0431 18.9176C35.7035 18.9002 34.3812 19.2204 33.1979 19.8486C32.0443 20.4603 31.0787 21.3743 30.4048 22.4928C29.6862 23.702 29.3246 25.09 29.3621 26.4962C29.3341 27.7985 29.6556 29.0844 30.2931 30.2203C30.9211 31.3064 31.8359 32.1987 32.9372 32.7993C34.1157 33.4401 35.4414 33.7611 36.7824 33.7303C38.4902 33.8101 40.1695 33.2713 41.5121 32.2128C42.8587 31.0618 43.7637 29.4788 44.0724 27.7345L43.7931 27.6693ZM35.2555 20.7145C35.4743 19.9019 36.2109 19.3371 37.0524 19.3366C37.308 19.3377 37.5598 19.3982 37.7879 19.5134C38.0272 19.6452 38.2241 19.8421 38.3559 20.0814C38.5013 20.3124 38.62 20.5591 38.7097 20.8169C38.8288 21.1849 38.9008 21.5666 38.9238 21.9528C38.9238 22.409 38.989 23.0421 38.989 23.8148V24.5224H34.6503C34.6539 23.791 34.7005 23.0604 34.79 22.3345C34.8937 21.7689 35.0495 21.2141 35.2555 20.6772V20.7145Z" fill="#131212"></path><path d="M60.4119 31.44C60.322 31.5184 60.205 31.5585 60.086 31.5517H59.7694C59.4661 31.5572 59.1839 31.3965 59.0339 31.1327C58.82 30.608 58.7338 30.04 58.7826 29.4755V22.7255C58.8656 21.6555 58.532 20.5947 57.8515 19.7648C57.1 19.0634 56.0805 18.7236 55.0584 18.8338C53.9283 18.8531 52.8039 18.9999 51.7067 19.2713C50.4605 19.5519 49.2513 19.9768 48.1036 20.5375C47.1677 20.9256 46.324 21.5061 45.627 22.2413C45.1397 22.7429 44.8517 23.4049 44.817 24.1034C44.7947 24.6485 45.0125 25.176 45.4129 25.5465C45.8569 25.9193 46.4261 26.109 47.005 26.0772C47.707 26.0578 48.3743 25.7676 48.867 25.2672C49.4626 24.644 49.7698 23.7998 49.7143 22.9396V22.4462C49.6686 21.725 49.8834 21.0114 50.3195 20.4351C50.6681 19.9969 51.2028 19.7486 51.7626 19.7648C52.1623 19.7465 52.5574 19.8575 52.8891 20.0813C53.2452 20.3616 53.4868 20.7622 53.5688 21.2079C53.7309 21.9507 53.8028 22.7103 53.7829 23.4703V24.9507C52.3398 25.3696 50.9898 25.8258 49.9005 26.2541C48.8023 26.6714 47.7297 27.1533 46.6884 27.6972C45.5214 28.2107 44.7509 29.3465 44.7053 30.6207C44.6936 31.5021 45.1145 32.3334 45.8319 32.8458C46.6793 33.4355 47.6958 33.7329 48.7274 33.6931C49.7897 33.7118 50.8418 33.4823 51.7998 33.0227C52.5979 32.5977 53.2962 32.0073 53.8481 31.291C53.913 31.9621 54.2131 32.5887 54.6953 33.06C55.2078 33.5127 55.8739 33.7525 56.5574 33.7303C57.3245 33.7413 58.0804 33.5451 58.7453 33.1624C59.4604 32.7819 60.0686 32.2281 60.5143 31.5517L60.4119 31.44ZM52.1163 31.6913C51.027 31.6913 50.4591 30.9465 50.4591 29.4289C50.4484 28.5187 50.7808 27.6379 51.3901 26.9617C52.0738 26.2857 52.9059 25.7788 53.8201 25.4813V29.6896C53.8581 30.2227 53.6954 30.7507 53.3639 31.17C53.0739 31.5318 52.6258 31.7298 52.1629 31.7007L52.1163 31.6913Z" fill="#131212"></path><path fill-rule="evenodd" clip-rule="evenodd" d="M60.4119 32.9948C60.9102 33.0001 61.3756 32.7463 61.6409 32.3245C61.9667 31.5681 62.101 30.7431 62.0319 29.9224V18.1076C62.1166 17.1083 61.9199 16.1053 61.464 15.212C61.1402 14.666 60.5436 14.3409 59.9092 14.3648V14.0483C61.0823 13.7596 62.3112 13.4803 63.5123 13.1172C64.7133 12.7541 65.9143 12.4562 66.9664 12.0745V30.4903C66.917 31.1276 67.0258 31.7672 67.283 32.3524C67.5271 32.6988 67.9207 32.9094 68.3444 32.9203V33.2369H60.4119V32.9948Z" fill="#131212"></path><path fill-rule="evenodd" clip-rule="evenodd" d="M70.886 32.9203C70.2264 32.1651 69.9065 31.1719 70.0015 30.1738V20.4631H67.8508L67.7856 20.221C68.6441 19.7973 69.4582 19.2889 70.2156 18.7034C71.0927 18.0106 71.9289 17.2676 72.7201 16.4782C73.4962 15.6961 74.215 14.8591 74.8708 13.9738L75.1222 14.0482V19.2341H78.3622L77.6639 20.4351H75.1222V29.2148C75.0753 29.8588 75.2074 30.5033 75.5039 31.0769C75.7535 31.4363 76.1649 31.649 76.6025 31.6448C76.8404 31.6319 77.077 31.6008 77.3101 31.5517C77.5381 31.5029 77.7535 31.4078 77.9432 31.2724L78.1201 31.5238C77.377 32.1553 76.5723 32.7105 75.7181 33.181C74.9858 33.5536 74.1748 33.7451 73.3532 33.7396C72.4578 33.7931 71.5755 33.5034 70.886 32.9296V32.9203Z" fill="#131212"></path><path fill-rule="evenodd" clip-rule="evenodd" d="M93.6781 32.3896C93.4454 31.6979 93.3505 30.9672 93.3988 30.239V22.8652C93.3988 20.221 92.3002 18.8803 90.1495 18.8803C89.5753 18.8683 89.0029 18.9501 88.455 19.1224C87.8576 19.3343 87.2885 19.6188 86.7605 19.9696C86.2019 20.3607 85.4943 20.9007 84.6843 21.5617V12.1396C83.5485 12.4934 82.4312 12.8472 81.2581 13.1638C80.085 13.4803 78.8933 13.7969 77.5898 14.0948V14.4114C78.2242 14.3874 78.8209 14.7126 79.1447 15.2586C79.5822 16.1546 79.775 17.1503 79.7033 18.1448V29.6896C79.7788 30.5798 79.6349 31.4749 79.2843 32.2965C79.0038 32.7445 78.5093 33.0129 77.9809 33.0041V33.3207H86.025V33.0041C85.6012 32.9957 85.2127 32.7661 85.0009 32.399C84.7324 31.7157 84.6241 30.9799 84.6843 30.2483V22.0552C85.0322 21.7492 85.4246 21.4981 85.8481 21.3103C86.1741 21.1412 86.5333 21.0459 86.9002 21.031C87.373 21.0204 87.816 21.2614 88.064 21.6641C88.4051 22.3269 88.5535 23.072 88.4923 23.8148V30.239C88.5037 30.8056 88.4695 31.3723 88.3898 31.9334C88.3576 32.2299 88.2186 32.5046 87.9988 32.7062C87.7625 32.879 87.4811 32.9792 87.1888 32.9948V33.3114H94.7023V32.9948C94.2758 32.996 93.8828 32.7638 93.6781 32.3896Z" fill="#131212"></path><path fill-rule="evenodd" clip-rule="evenodd" d="M100.065 33.5255C99.3945 33.3766 98.7614 33.2741 98.2028 33.1717C97.7155 33.0693 97.2201 33.0101 96.7224 32.9948C96.4978 33.0013 96.2738 33.0231 96.0521 33.06C95.8702 33.1183 95.6928 33.1898 95.5214 33.2741V26.7569L95.81 26.6824C96.6401 28.0228 97.574 29.296 98.6031 30.4903C99.2606 31.2866 100.047 31.9664 100.931 32.5014C101.572 32.8797 102.3 33.088 103.044 33.1066C103.581 33.1556 104.116 32.9918 104.534 32.6503C104.847 32.3312 105.012 31.8958 104.99 31.4493C105.014 30.8854 104.781 30.341 104.357 29.969C103.662 29.4522 102.893 29.0441 102.076 28.7586L100.028 27.9486C98.7599 27.5148 97.5873 26.8416 96.5735 25.9655C95.9147 25.3015 95.5579 24.3959 95.5866 23.461C95.5611 22.6313 95.7955 21.8143 96.2569 21.1241C96.7385 20.4003 97.4079 19.821 98.1935 19.4483C99.1431 19.0069 100.182 18.7902 101.229 18.8152C101.852 18.8077 102.475 18.8544 103.091 18.9548C103.687 19.0666 104.254 19.1317 104.711 19.2434C105.167 19.3552 105.558 19.3831 105.809 19.3831C105.973 19.403 106.139 19.403 106.303 19.3831L106.619 19.2807L107.01 24.569L106.759 24.6434C105.891 23.1715 104.822 21.8273 103.584 20.6493C102.828 19.9219 101.838 19.4864 100.791 19.4203C100.279 19.3916 99.7747 19.5542 99.3759 19.8766C99.0027 20.1773 98.7924 20.6358 98.8079 21.1148C98.7827 21.6331 98.9911 22.1354 99.3759 22.4834C99.9241 22.9361 100.557 23.2747 101.238 23.4797L103.668 24.2897C104.883 24.6193 106.007 25.221 106.954 26.0493C107.621 26.7235 107.978 27.6437 107.941 28.591C108.002 30.0256 107.418 31.4123 106.349 32.371C105.142 33.3307 103.626 33.8173 102.085 33.7397C101.398 33.7286 100.713 33.6601 100.037 33.5348L100.065 33.5255Z" fill="#131212"></path><path fill-rule="evenodd" clip-rule="evenodd" d="M111.992 17.9586C112.796 17.9817 113.575 17.6742 114.147 17.1077C114.718 16.5413 115.033 15.7654 115.017 14.9607C114.998 14.204 114.699 13.4813 114.179 12.931C113.625 12.3103 112.823 11.9689 111.992 12C111.477 11.9943 110.972 12.1399 110.539 12.419C110.088 12.6921 109.708 13.0687 109.431 13.5176C109.159 13.9504 109.011 14.4495 109.003 14.9607C109.01 15.7659 109.346 16.5331 109.934 17.0834C110.468 17.6489 111.214 17.9661 111.992 17.9586Z" fill="#131212"></path><path fill-rule="evenodd" clip-rule="evenodd" d="M140.881 32.4269C140.617 31.8273 140.509 31.171 140.565 30.5183V22.8652C140.565 20.2211 139.475 18.8804 137.325 18.8804C136.724 18.8838 136.128 18.978 135.556 19.1597C134.929 19.3877 134.337 19.701 133.796 20.0907C133.149 20.5136 132.527 20.9737 131.934 21.4686C131.851 20.8058 131.538 20.1931 131.049 19.7369C130.394 19.1738 129.548 18.8838 128.685 18.9269C127.715 18.9357 126.76 19.1649 125.892 19.5973C124.972 20.0284 124.129 20.6071 123.396 21.3104V18.8804C122.726 19.1224 121.981 19.4111 121.171 19.6531C120.361 19.8952 119.551 20.1838 118.741 20.4352C117.931 20.6866 117.261 20.8542 116.693 20.9938V21.3104C117.243 21.3206 117.749 21.6124 118.034 22.0831C118.35 22.9397 118.484 23.8532 118.425 24.7645V30.5183C118.488 31.1836 118.298 31.8483 117.894 32.3804C117.56 32.7256 117.099 32.9176 116.618 32.9111C116.114 32.9509 115.619 32.7549 115.278 32.3804C114.919 31.8295 114.758 31.1728 114.822 30.5183V18.778C113.732 19.1969 112.596 19.588 111.405 19.9417C110.213 20.2955 108.965 20.64 107.727 20.9286V21.208C108.406 21.2094 109.036 21.5615 109.394 22.139C109.774 23.0188 109.943 23.9753 109.887 24.9321V29.5873C109.939 30.4648 109.806 31.3435 109.496 32.1662C109.232 32.6571 108.713 32.9563 108.155 32.939V33.2555H124.737V32.939C124.317 32.8948 123.94 32.6618 123.713 32.3059C123.454 31.7212 123.345 31.0812 123.396 30.4438V21.9155C123.666 21.6504 123.982 21.436 124.327 21.2824C124.668 21.1117 125.045 21.0255 125.426 21.0311C125.915 20.9965 126.384 21.2277 126.655 21.6362C126.969 22.3074 127.103 23.0483 127.046 23.7869V30.4904C127.1 31.1278 126.991 31.7685 126.729 32.3524C126.51 32.6884 126.143 32.8995 125.743 32.9204V33.2369H133.358V32.9204C132.941 32.8958 132.556 32.6879 132.306 32.3524C132.068 31.7364 131.969 31.0748 132.018 30.4159V21.8783C132.326 21.6037 132.656 21.3546 133.005 21.1335C133.337 20.9349 133.716 20.8258 134.103 20.8169C134.578 20.8063 135.023 21.0516 135.267 21.4593C135.604 22.16 135.749 22.9375 135.686 23.7124V30.4159C135.744 31.0743 135.662 31.7377 135.444 32.3617C135.209 32.7127 134.804 32.9114 134.383 32.8831V33.1997H142.017V32.8831C141.579 33.0056 141.113 32.8185 140.881 32.4269Z" fill="#131212"></path><path d="M157.5 22.9397C157.339 22.1206 156.974 21.3553 156.439 20.7145C155.542 19.5184 154.126 18.8257 152.631 18.8524C151.844 18.8371 151.062 18.9927 150.341 19.3086C149.637 19.6423 148.982 20.0715 148.395 20.5841V18.8431C147.725 19.0945 146.952 19.3366 146.142 19.6252C145.332 19.9138 144.484 20.1466 143.637 20.3979C142.79 20.6493 142.045 20.8541 141.347 21.031V21.3103C141.789 21.3562 142.219 21.4857 142.613 21.6921C142.957 21.9476 143.185 22.3295 143.246 22.7534C143.406 23.4114 143.478 24.0876 143.46 24.7645V34.5403C143.492 35.3459 143.407 36.1518 143.209 36.9331C143.108 37.4048 142.832 37.8206 142.436 38.0969C142.036 38.3278 141.592 38.4736 141.133 38.5252V38.8417H150.583V38.5252C149.949 38.5257 149.341 38.2706 148.898 37.8176C148.496 37.1251 148.32 36.3244 148.395 35.5272V32.8552C148.718 33.1003 149.08 33.2892 149.466 33.4138C150.015 33.5815 150.586 33.6663 151.16 33.6652C152.04 33.6643 152.912 33.4969 153.73 33.1717C154.53 32.8276 155.253 32.3239 155.852 31.6914C156.496 30.9717 156.987 30.1293 157.296 29.2148C157.67 28.173 157.856 27.0727 157.845 25.9655C157.848 24.9341 157.729 23.906 157.491 22.9024L157.5 22.9397ZM151.747 31.319C151.426 32.1651 150.639 32.7445 149.736 32.7993C149.435 32.8003 149.137 32.7402 148.86 32.6224C148.679 32.5305 148.512 32.4112 148.367 32.2686V21.0962C148.829 20.6867 149.409 20.4355 150.024 20.3793C150.76 20.3793 151.365 20.8728 151.886 21.8224C152.452 23.2831 152.693 24.8492 152.594 26.4124C152.594 28.7028 152.342 30.3321 151.775 31.319H151.747Z" fill="#131212"></path><path fill-rule="evenodd" clip-rule="evenodd" d="M157.677 32.9948C158.178 33.0016 158.647 32.7478 158.915 32.3245C159.232 31.5656 159.363 30.7421 159.297 29.9224V18.1076C159.379 17.1095 159.186 16.108 158.738 15.2121C158.415 14.666 157.818 14.3409 157.184 14.3648V14.0483C158.347 13.7597 159.586 13.4804 160.787 13.1173C161.988 12.7542 163.179 12.4469 164.241 12.0652V30.4904C164.187 31.1278 164.296 31.7685 164.557 32.3524C164.802 32.6989 165.195 32.9094 165.619 32.9204V33.2369H157.677V32.9948Z" fill="#131212"></path><path d="M179.873 27.6693C179.203 29.3917 177.685 30.2389 175.385 30.2389C174.119 30.2984 172.887 29.81 172.006 28.8983C171.104 27.8217 170.659 26.4347 170.768 25.0345H180.078V24.8576C180.088 23.7422 179.763 22.6494 179.147 21.72C178.51 20.8276 177.658 20.1102 176.67 19.6345C174.32 18.5838 171.619 18.6626 169.334 19.8486C168.179 20.4595 167.214 21.3737 166.541 22.4927C165.819 23.6946 165.451 25.0759 165.479 26.4776C165.451 27.7798 165.773 29.0658 166.41 30.2017C167.042 31.2881 167.96 32.1802 169.064 32.7807C170.242 33.4227 171.568 33.7437 172.909 33.7117C174.625 33.7907 176.313 33.2523 177.666 32.1941C178.994 31.0411 179.885 29.4665 180.19 27.7345L179.873 27.6693ZM171.335 20.7145C171.575 19.9163 172.299 19.3613 173.132 19.3365C173.388 19.3377 173.64 19.3982 173.868 19.5134C174.107 19.6452 174.304 19.8421 174.436 20.0814C174.581 20.3123 174.7 20.5591 174.79 20.8169C174.909 21.1849 174.981 21.5666 175.004 21.9527C175.004 22.4089 175.069 23.042 175.069 23.8148V24.5224H170.73C170.734 23.791 170.78 23.0604 170.87 22.3345C170.974 21.7689 171.129 21.2141 171.335 20.6772V20.7145Z" fill="#131212"></path></g><defs><clipPath id="clip0_71_63"><rect width="180" height="48" fill="white" transform="translate(0.5)"></rect></clipPath></defs></svg>